<svg xmlns="http://www.w3.org/2000/svg" width="960" height="540" viewBox="0 0 960 540">
  <defs>
    <linearGradient id="panel" x1="0" y1="0" x2="1" y2="1">
      <stop offset="0" stop-color="#FFFFFF" stop-opacity="0.96"/>
      <stop offset="1" stop-color="#E0F7FF" stop-opacity="0.92"/>
    </linearGradient>
    <radialGradient id="halo" cx="50%" cy="50%" r="50%">
      <stop offset="0" stop-color="#38BDF8" stop-opacity="0.34"/>
      <stop offset="0.65" stop-color="#7DD3FC" stop-opacity="0.15"/>
      <stop offset="1" stop-color="#FFFFFF" stop-opacity="0"/>
    </radialGradient>
  </defs>
  <rect width="960" height="540" rx="36" fill="url(#panel)"/>
  <g transform="translate(486 270)">
    <circle r="220" fill="url(#halo)"/>
    <circle r="196" fill="none" stroke="#38BDF8" stroke-width="3" opacity="0.55"/>
    <circle r="138" fill="none" stroke="#60A5FA" stroke-width="3" opacity="0.46"/>
    <circle r="78" fill="none" stroke="#22D3EE" stroke-width="3" opacity="0.38"/>
    <path d="M0 0 L166 -78" stroke="#0EA5E9" stroke-width="6" opacity="0.55"/>
    <path d="M0 0 L-128 116" stroke="#60A5FA" stroke-width="4" opacity="0.38"/>
  </g>
  <g stroke="#38BDF8" stroke-width="3" fill="none" opacity="0.72">
    <path d="M146 158 C252 86 346 178 438 128 S620 96 752 170"/>
    <path d="M142 370 C282 300 386 412 520 334 S726 312 828 234"/>
    <path d="M204 238 L330 304 L468 238 L604 314 L724 246"/>
  </g>
  <g fill="#FFFFFF" stroke="#0EA5E9" stroke-width="3">
    <circle cx="146" cy="158" r="14"/><circle cx="252" cy="86" r="18"/><circle cx="438" cy="128" r="13"/>
    <circle cx="620" cy="96" r="16"/><circle cx="752" cy="170" r="20"/>
    <circle cx="142" cy="370" r="13"/><circle cx="282" cy="300" r="15"/><circle cx="520" cy="334" r="18"/>
    <circle cx="726" cy="312" r="14"/><circle cx="828" cy="234" r="17"/>
    <circle cx="204" cy="238" r="12"/><circle cx="330" cy="304" r="16"/><circle cx="468" cy="238" r="14"/>
    <circle cx="604" cy="314" r="15"/><circle cx="724" cy="246" r="13"/>
  </g>
  <g font-family="Microsoft YaHei, Arial, sans-serif" fill="#0369A1" font-weight="700">
    <text x="92" y="72" font-size="24">GitHub API-first</text>
    <text x="650" y="454" font-size="22">Score · Cluster · Agent</text>
  </g>
</svg>
